<svg xmlns="http://www.w3.org/2000/svg" width="1200" height="1200" viewBox="0 0 1200 1200"><defs><linearGradient id="g" x1="0" y1="0" x2="1" y2="1"><stop stop-color="#21102f"/><stop offset="1" stop-color="#7137b7"/></linearGradient></defs><rect width="1200" height="1200" rx="72" fill="url(#g)"/><circle cx="600" cy="260" r="130" fill="none" stroke="#c88cff" stroke-width="14"/><path d="M550 215c-45 0-70 35-70 75s25 70 70 70M650 215c45 0 70 35 70 75s-25 70-70 70M600 190v200M545 260h110M545 320h110" fill="none" stroke="#c88cff" stroke-width="14" stroke-linecap="round"/><text x="600" y="455" text-anchor="middle" fill="white" font-family="Arial,sans-serif" font-size="74" font-weight="700">Sky365</text><text x="600" y="575" text-anchor="middle" fill="#c88cff" font-family="Arial,sans-serif" font-size="112" font-weight="800">AI</text><text x="600" y="665" text-anchor="middle" fill="white" font-family="Arial,sans-serif" font-size="42">Intelligence &amp; Automation Layer</text><text x="600" y="790" text-anchor="middle" fill="#f3e5ff" font-family="Arial,sans-serif" font-size="34">Copilots · Knowledge · RAG · Analytics</text><text x="600" y="845" text-anchor="middle" fill="#f3e5ff" font-family="Arial,sans-serif" font-size="34">Recommendations · Process Automation</text><rect x="180" y="955" width="840" height="4" fill="#c88cff"/><text x="600" y="1045" text-anchor="middle" fill="white" font-family="Arial,sans-serif" font-size="32">Understand data and empower people</text><text x="600" y="1120" text-anchor="middle" fill="#ddbaff" font-family="Arial,sans-serif" font-size="26">Edition 3</text></svg>